<?xml version="1.0" encoding="UTF-8" standalone="no"?>
<svg
   xmlns:dc="http://purl.org/dc/elements/1.1/"
   xmlns:cc="http://creativecommons.org/ns#"
   xmlns:rdf="http://www.w3.org/1999/02/22-rdf-syntax-ns#"
   xmlns:svg="http://www.w3.org/2000/svg"
   xmlns="http://www.w3.org/2000/svg"
   id="svg4"
   version="1.1"
   height="20"
   width="20"
   viewBox="0 0 20 20">
  <metadata
     id="metadata10">
    <rdf:RDF>
      <cc:Work
         rdf:about="">
        <dc:format>image/svg+xml</dc:format>
        <dc:type
           rdf:resource="http://purl.org/dc/dcmitype/StillImage" />
        <dc:title></dc:title>
      </cc:Work>
    </rdf:RDF>
  </metadata>
  <defs
     id="defs8" />
  <path
     style="fill:#000000;fill-opacity:1"
     id="path867"
     d="M 9.96875 -0.021484375 C 8.4167888 -0.045507856 6.8582976 0.30335333 5.4394531 1.0996094 C -0.54875494 3.8806789 -1.8706714 12.794148 3.0527344 17.193359 C 4.5059265 18.602253 6.3960924 19.550014 8.3945312 19.871094 C 14.865452 21.182644 21.215115 14.789932 19.859375 8.328125 C 19.226392 3.4875789 14.624633 0.050586069 9.96875 -0.021484375 z M 8.046875 6.9882812 C 8.1474827 6.9922248 8.2499816 7.0138491 8.3515625 7.0566406 C 8.9745163 7.4010784 9.3838335 8.0330769 9.9101562 8.5058594 C 10.151817 8.9670274 10.396762 8.3633631 10.640625 8.2011719 C 11.154544 7.7790388 11.520659 7.0328046 12.257812 7.0097656 C 13.168776 6.9748267 13.602038 8.2685648 12.871094 8.8027344 C 12.430501 9.2404462 11.945197 9.6970831 11.533203 10.123047 C 12.05781 10.680146 12.664091 11.168596 13.130859 11.773438 C 13.584446 12.529642 12.716945 13.529832 11.904297 13.1875 C 11.28168 12.842732 10.869514 12.215554 10.341797 11.744141 C 10.09724 11.280444 9.8511349 11.876594 9.6054688 12.044922 C 9.0915506 12.467055 8.7254345 13.213289 7.9882812 13.236328 C 7.0773186 13.271266 6.6421032 11.977529 7.3730469 11.443359 L 8.7226562 10.123047 C 8.1980496 9.5659479 7.5917688 9.0755457 7.125 8.4707031 C 6.7281115 7.8090238 7.3426214 6.9606766 8.046875 6.9882812 z " />
</svg>
