<?xml version="1.0" encoding="UTF-8" standalone="no"?>
<svg
   xmlns:dc="http://purl.org/dc/elements/1.1/"
   xmlns:cc="http://creativecommons.org/ns#"
   xmlns:rdf="http://www.w3.org/1999/02/22-rdf-syntax-ns#"
   xmlns:svg="http://www.w3.org/2000/svg"
   xmlns="http://www.w3.org/2000/svg"
   viewBox="0 0 63.6 63.6"
   version="1.1"
   id="svg18">
  <metadata
     id="metadata24">
    <rdf:RDF>
      <cc:Work
         rdf:about="">
        <dc:format>image/svg+xml</dc:format>
        <dc:type
           rdf:resource="http://purl.org/dc/dcmitype/StillImage" />
        <dc:title></dc:title>
      </cc:Work>
    </rdf:RDF>
  </metadata>
  <defs
     id="defs22" />
  <g
     id="g16">
    <path
       d="M 31.8,0 C 14.2,0 0,14.3 0,31.8 0,49.4 14.3,63.6 31.8,63.6 49.4,63.6 63.6,49.3 63.6,31.8 63.6,14.2 49.4,0 31.8,0 Z m 16.4,37.4 c -32.133333,17.466666 -16.066667,8.733333 0,0 z"
       id="path2"
       style="fill:currentColor" />
    <path
       id="circle4"
       d="m 21.004001,31.799999 a 5.6090002,5.6090002 0 0 1 -0.08809,0.990177 L 15.395,31.799999 Z"
       style="fill:#ffffff" />
    <path
       id="circle8"
       d="M 37.408999,31.799999 A 5.6090002,5.6090002 0 0 1 37.227611,33.21489 L 31.799999,31.799999 Z"
       style="fill:#ffffff" />
    <path
       id="rect26"
       d="M 9.7661638,29.015881 H 23.86755 v 5.52188 H 9.7661638 Z"
       style="fill:#ffffff;stroke-width:1.00122702" />
    <path
       id="rect26-3"
       d="m 23.015274,29.016308 h 17.612762 v 5.52188 H 23.015274 Z"
       style="fill:#ffffff;stroke-width:1.11896205" />
    <path
       id="rect26-3-6"
       d="m 39.818161,29.016308 h 14.053746 v 5.52188 H 39.818161 Z"
       style="fill:#ffffff;stroke-width:0.99953431" />
  </g>
</svg>
