<?xml version="1.0" encoding="UTF-8" standalone="no"?>
<svg
   xmlns:dc="http://purl.org/dc/elements/1.1/"
   xmlns:cc="http://creativecommons.org/ns#"
   xmlns:rdf="http://www.w3.org/1999/02/22-rdf-syntax-ns#"
   xmlns:svg="http://www.w3.org/2000/svg"
   xmlns="http://www.w3.org/2000/svg"
   height="55.998177"
   width="32"
   id="svg26"
   version="1.1"
   y="0px"
   x="0px"
   viewBox="0 0 32 55.998177">
  <metadata
     id="metadata32">
    <rdf:RDF>
      <cc:Work
         rdf:about="">
        <dc:format>image/svg+xml</dc:format>
        <dc:type
           rdf:resource="http://purl.org/dc/dcmitype/StillImage" />
        <dc:title>Movies - Solid - 008 - Bafta</dc:title>
      </cc:Work>
    </rdf:RDF>
  </metadata>
  <defs
     id="defs30" />
  <title
     id="title2">Movies - Solid - 008 - Bafta</title>
  <path
     d="m 15,39.998175 h 2 v -2.83783 c -0.33368,0.01178 -0.66791,0.02777 -1,0.02777 -0.33209,0 -0.66632,-0.016 -1,-0.02777 z m -14,4 h 30 a 1,1 0 0 0 0,-2 H 1 a 1,1 0 0 0 0,2 z m 3,2.000002 h 24 v 6 H 4 Z m 27,7.999998 H 1 a 1,1 0 0 0 0,2 h 30 a 1,1 0 0 0 0,-2 z M 15.49121,23.869755 h 1.01758 a 1.26236,1.26236 0 0 0 0.94434,-0.41455 1.09382,1.09382 0 0 0 0.27832,-0.86182 l -0.50391,-4.38521 a 1.24647,1.24647 0 0 0 -2.45508,4.9e-4 l -0.50391,4.38428 a 1.09432,1.09432 0 0 0 0.27832,0.8623 1.26236,1.26236 0 0 0 0.94434,0.41451 z M 3.17676,21.392705 a 50.55169,50.55169 0 0 0 3.48047,10.355 5.0671,5.0671 0 0 0 3.46191,2.79492 27.24933,27.24933 0 0 0 11.7666,-0.0015 5.06221,5.06221 0 0 0 3.457,-2.79443 A 50.96308,50.96308 0 0 0 30,10.527965 V 6.3944749 a 12.63407,12.63407 0 0 1 -2.58984,-0.47638 12.49666,12.49666 0 0 1 -2.72268,-1.144 3.01188,3.01188 0 0 1 -2.68064,1.66406 3.01846,3.01846 0 0 1 -0.73437,-0.09082 21.81526,21.81526 0 0 0 -10.54492,0 3.00608,3.00608 0 0 1 -3.46,-1.66748 12.55109,12.55109 0 0 1 -2.67969,1.11865 12.33379,12.33379 0 0 1 -2.59656,0.48016 L 2,10.527965 a 50.54855,50.54855 0 0 0 1.17676,10.86474 z m 19.793,8.66016 a 0.99951,0.99951 0 0 1 -1.21191,0.72754 l -3.6416,-0.91064 -1.22168,0.61084 a 2.00845,2.00845 0 0 1 -1.78906,4.9e-4 l -1.22168,-0.61182 -3.6416,0.91113 a 1,1 0 0 1 -0.48437,-1.94043 l 3.6416,-0.91064 a 2.00615,2.00615 0 0 1 1.377,0.15088 l 1.22354,0.6123 1.22168,-0.61133 a 2.00606,2.00606 0 0 1 1.37793,-0.15186 l 3.64258,0.91064 a 0.9995,0.9995 0 0 1 0.72754,1.2129 z M 22,9.1783549 c 2.24316,0 4,1.3178701 4,3.0000001 0,1.68213 -1.75684,3 -4,3 -2.24316,0 -4,-1.31787 -4,-3 0,-1.68213 1.75684,-3.0000001 4,-3.0000001 z m -2.78613,8.8008201 0.50391,4.38525 a 3.10711,3.10711 0 0 1 -0.77148,2.42139 3.26341,3.26341 0 0 1 -2.4375,1.084 h -1.01759 a 3.26341,3.26341 0 0 1 -2.4375,-1.084 3.10761,3.10761 0 0 1 -0.77148,-2.42187 l 0.50391,-4.38428 a 3.24429,3.24429 0 0 1 6.42773,-4.9e-4 z M 10,9.1783549 c 2.24316,0 4,1.3178701 4,3.0000001 0,1.68213 -1.75684,3 -4,3 -2.24316,0 -4,-1.31787 -4,-3 0,-1.68213 1.75684,-3.0000001 4,-3.0000001 z m 12,4.0000001 c 1.2207,0 2,-0.59229 2,-1 0,-0.40771 -0.7793,-1 -2,-1 -1.2207,0 -2,0.59229 -2,1 0,0.40771 0.7793,1 2,1 z M 7.37793,2.2051749 A 1.00034,1.00034 0 0 1 9,2.9884049 v 0.44824 a 1.00062,1.00062 0 0 0 1.24316,0.97021 23.82229,23.82229 0 0 1 11.51367,0 A 1.00062,1.00062 0 0 0 23,3.4366549 v -0.32862 a 1.00034,1.00034 0 0 1 1.62207,-0.7832 9.79275,9.79275 0 0 0 3.34668,1.67285 10.932,10.932 0 0 0 1.68555,0.354 5.12551,5.12551 0 0 0 -0.69141,-1.229 4.98476,4.98476 0 0 0 -2.67089,-1.77832 c -0.12793,-0.03516 -0.18262,-0.05176 -0.24121,-0.0625 -0.792,-0.20068 -1.51465,-0.36670003 -2.24707,-0.51318003 -0.62988,-0.12549 -1.26855,-0.24219 -1.9082,-0.32959 a 39.64068,39.64068 0 0 0 -11.75782,-0.00147 c -0.63965,0.09619 -1.29,0.20313 -1.93066,0.33887 Q 6.93556,1.0218549 5.75684,1.3350849 c -0.02637,0.00635 -0.05176,0.01221 -0.07715,0.01709 a 4.98915,4.98915 0 0 0 -3.2832,2.87354 10.74043,10.74043 0 0 0 1.62988,-0.34668 9.80076,9.80076 0 0 0 3.35156,-1.67386 z M 10,13.178355 c 1.2207,0 2,-0.59229 2,-1 0,-0.40771 -0.7793,-1 -2,-1 -1.2207,0 -2,0.59229 -2,1 0,0.40771 0.7793,1 2,1 z"
     id="path20" />
</svg>
