<?xml version="1.0" encoding="UTF-8" standalone="no"?>
<svg
   xmlns:dc="http://purl.org/dc/elements/1.1/"
   xmlns:cc="http://creativecommons.org/ns#"
   xmlns:rdf="http://www.w3.org/1999/02/22-rdf-syntax-ns#"
   xmlns:svg="http://www.w3.org/2000/svg"
   xmlns="http://www.w3.org/2000/svg"
   version="1.1"
   width="23.368847"
   height="38.554562"
   id="svg8028">
  <defs
     id="defs8030" />
  <metadata
     id="metadata8033">
    <rdf:RDF>
      <cc:Work
         rdf:about="">
        <dc:format>image/svg+xml</dc:format>
        <dc:type
           rdf:resource="http://purl.org/dc/dcmitype/StillImage" />
        <dc:title></dc:title>
      </cc:Work>
    </rdf:RDF>
  </metadata>
  <path
     id="path3009"
     style="fill:#000000;fill-opacity:1;fill-rule:evenodd;stroke:none"
     d="m 3.6913465,30.9672 c -0.2725,0.1775 -0.7075,0.3275 -1.03375,0.13625 -0.0413,-0.0275 -0.0825,-0.0813 -0.055,-0.13625 0.23125,-0.17625 0.53125,-0.2575 0.81625,-0.17625 0.11,0.04 0.205,0.095 0.2725,0.17625 m -1.5925,-6.3 c 0.45,0.29875 0.9125,0.735 1.1975,1.1975 -0.66625,-0.0675 -1.21,-0.43625 -1.76875,-0.77625 -0.3125,-0.2175 -0.66625002,-0.47625 -0.88500002,-0.81625 -0.0263,-0.0687 0.015,-0.17625 0.11,-0.17625 0.49000002,0.0675 0.89750002,0.36625 1.34625002,0.57125 m 3.87875,-18.775 c 0.1225,0.4075 0.11,0.85625 0.16375,1.27875 l -0.0412,0.17625 -0.44875,-0.04 c -0.10875,-0.10875 -0.20375,-0.2725 -0.35375,-0.3125 -0.095,-0.015 -0.13625,0.10875 -0.1775,0.17625 -0.245,-0.13625 -0.32625,-0.435 -0.34,-0.735 0.0812,-0.23125 -0.1225,-0.44875 0.0275,-0.65375 0.0675,-0.19 0.16375,-0.44875 0.395,-0.5025 0.435,-0.10875 0.59875,0.35375 0.775,0.6125 m 1.0075,-5.44375 c 0.7625,0.93875 1.06125,2.06875 1.25125,3.23875 0.0688,0.91125 0,1.86375 -0.23125,2.695 -0.23125,0.81625 -1.08875,1.55125 -1.89125,1.76875 0.34,0.72125 0.68,1.4425 0.74875,2.2725 -0.0137,0.38125 -0.2725,0.7075 -0.6125,0.87 -0.40875,0.245 -0.98,0.21875 -1.42875,0.12375 0.59875,0.78875 0.9525,1.6725 1.40125,2.53 0.055,0.16375 0.10875,0.38125 0.0137,0.53125 -0.0675,0.10875 -0.19,0.095 -0.29875,0.10875 0.20375,0.35375 0.36625,0.735 0.435,1.15625 -0.0138,0.2725 -0.16375,0.50375 -0.38125,0.68125 0.055,0.50375 0.3675,1.30625 -0.205,1.64625 -0.36625,0.245 -0.83,0.32625 -1.10125,0.69375 0.0812,0.54375 0.3675,0.99375 0.50375,1.49625 l 0.245,0.99125 c 0.0137,0.10875 -0.0688,0.205 -0.15,0.2175 -0.43625,0.10875 -0.735,-0.20375 -1.08875,-0.3125 -0.0412,0.2175 0.1775,0.39375 0.25875,0.585 0.3675,0.46125 0.83,0.87 0.99375,1.41375 0.04,0.1225 0.0813,0.28625 0.0263,0.4225 -0.0675,0.17625 -0.25875,0.15 -0.38,0.0812 l -0.545,-0.245 c -0.245,-0.0137 -0.50375,-0.0412 -0.735,-0.095 -0.0413,0.13625 0.0812,0.245 0.16375,0.35375 0.54375,0.59875 0.7075,1.37375 0.735,2.1775 -0.0413,0.1625 -0.1775,0.2725 -0.16375,0.44875 -0.20375,0.15 -0.4625,0.15 -0.7075,0.1775 0.15,0.3125 0.245,0.66625 0.29875,1.02 -0.0137,0.245 -0.245,0.395 -0.285,0.62625 0.1225,0.1225 0.3125,0.10875 0.49,0.13625 0.35375,0.0137 0.72125,-0.0275 1.00625,0.1225 l 0.0687,0.53 c -0.49,0.13625 -1.11625,-0.27125 -1.51125,0.19125 -0.0263,0.0412 -0.0263,0.095 0.0275,0.13625 0.44875,0.2725 1.17,0.61125 1.06125,1.265 -0.15,0.28625 -0.44875,0.545 -0.69375,0.74875 0.23125,0.85625 0.285,1.76875 0.50375,2.62625 0.3125,0.1225 0.3125,0.49 0.395,0.7625 0.0125,0.25875 0.0263,0.53 0.13625,0.76125 0.1625,-0.49 0.1625,-1.10125 0.4475,-1.565 0.65375,-0.53125 1.26625,-1.18375 1.92,-1.74125 0.17625,-0.16375 0.4075,-0.3 0.51625,-0.5175 0.0687,-0.095 0.16375,0 0.245,0 -0.1625,-0.2175 -0.29875,-0.47625 -0.51625,-0.68 -0.15,-0.24625 -0.32625,-0.49 -0.4225,-0.7625 -0.0138,-0.04 -0.1225,-0.0537 -0.0675,-0.1225 -0.32625,-0.74875 -0.6675,-1.52375 -0.80375,-2.3675 -0.0813,-0.43625 -0.14875,-0.885 -0.14875,-1.3475 0.0538,-0.20375 0.27125,-0.17625 0.39375,-0.3 -0.25875,-0.285 0.0275,-0.61125 0.0687,-0.91125 0,-0.44875 0.23125,-0.8025 0.35375,-1.21125 l 0.0675,-0.095 c 0.0413,-0.53125 0.4225,-0.925 0.545,-1.42875 0.14875,-0.51625 0.57125,-0.92375 0.66625,-1.4675 -0.095,-0.54375 -0.2725,-1.06 -0.29875,-1.645 -0.095,-0.0812 -0.21875,-0.0675 -0.23125,-0.2175 -0.0275,-0.285 0.095,-0.53 0.10875,-0.81625 0.0537,-0.585 0.17625,-1.15625 0.17625,-1.77 -0.64,-1.1975 -0.5575,-2.7075 -0.66625,-4.13625 0.04,-0.0688 0.0137,-0.15 -0.055,-0.19125 -0.17625,-0.14875 -0.4075,-0.3125 -0.47625,-0.53 0.0275,-0.1625 -0.23125,-0.2725 -0.0813,-0.40875 h -0.10875 c -0.0138,-0.0538 0.0538,-0.10875 0.0675,-0.1625 -0.0412,-0.0275 -0.10875,0.0137 -0.15,-0.055 l 0.10875,-0.1625 c -0.0263,-0.0275 -0.095,-0.0138 -0.0813,-0.0825 0.10875,-0.095 0.19125,-0.1625 0.23125,-0.29875 0.13625,-0.10875 0.28625,-0.19125 0.3275,-0.35375 l -0.0687,-0.0137 c -0.0263,-0.0813 0.0412,-0.15 0.1225,-0.1775 0.10875,-0.19 0.28625,-0.3675 0.50375,-0.38 0.0412,0.1225 -0.0813,0.2175 -0.15,0.29875 0.055,0.04 0.0687,-0.0412 0.1225,-0.0137 0.0412,0.095 -0.19,0.245 0.0137,0.28625 l 0.20375,-0.0412 c 0.055,-0.0813 0.13625,-0.20375 0.245,-0.2175 0.055,-0.0138 0.11,0.0412 0.13625,0.0812 0.095,-0.0263 0.245,-0.1225 0.34,-0.0137 0.0412,0.0275 0.055,0.0825 0.055,0.1225 0.15,0.13625 0.25875,-0.0137 0.39375,-0.0538 0.25875,0.23125 0.58625,0 0.8712495,-0.0275 0.53125,-0.0275 0.98,-0.20375 1.45625,-0.38125 0.49,-0.04 1.04875,-0.19 1.4975,0.0412 -0.0275,0.0812 -0.19125,0.15 -0.16375,0.2575 -0.0137,0.0412 -0.0812,0.0687 -0.0812,0.12375 0.10875,0.0263 0.245,0.0263 0.285,0.14875 0.21875,-0.095 0.2325,0.2325 0.45,0.0963 0,0.10875 0.10875,0.14875 0.14875,0.23125 0.19125,-0.0687 0.3675,0.0125 0.545,-0.0412 0.1225,-0.0537 0.285,-0.0537 0.4075,-0.0675 0.3,-0.0825 0.59875,-0.205 0.93875,-0.205 0.13625,-0.0538 0.3275,-0.1625 0.4775,-0.04 0.12125,0.0125 0.23125,0.04 0.32625,0.10875 0.0538,0.19 -0.055,0.38 0,0.585 0.0275,0.10875 0.10875,0.245 0.0138,0.34 -0.25875,0.15 -0.095,0.49 -0.205,0.7075 0.0413,0.0412 0.0825,-0.0137 0.1225,-0.04 0.0275,-0.0275 0.0275,-0.0688 0.0825,-0.055 l -0.16375,0.51625 c -0.095,0.13625 -0.2725,0.19125 -0.3125,0.355 -0.19125,0.2575 -0.50375,0.29875 -0.74875,0.51625 -0.17625,0.1225 -0.29875,0.35375 -0.50375,0.395 -0.10875,0.0675 0.0687,0.1775 -0.0413,0.245 -0.2175,0.095 -0.4075,0.29875 -0.44875,0.50375 -0.25875,0.1625 -0.51625,0.42125 -0.6525,0.68 -0.3675,0.34 -0.5725,0.74875 -0.77625,1.1425 0.62625,0.3675 1.28,0.68125 1.96,0.96625 0,0.13625 0.19,0 0.19,0.11 h 0.19125 c 0.13625,0.0537 0.245,-0.0412 0.395,-0.0275 l 0.51625,0.0538 c 0.585,0.2325 1.23875,0.43625 1.905,0.4625 0.16375,0.0825 0.35375,-0.0263 0.50375,0.055 0.78875,-0.35375 1.4975,-0.885 2.4775,-0.76125 0.12125,0.0263 0.2575,0.0538 0.39375,0.0675 0.0412,0 0.0412,0.0675 0.0813,0.0138 0.21875,-0.055 0.35375,0.1225 0.5175,0.23125 l -0.0537,0.20375 c 0.10875,0.0825 0.27125,0.0825 0.42125,0.0825 -0.0137,0.14875 0.32625,0.24375 0.15,0.4075 0.0275,0.1225 0.285,0 0.23125,0.17625 0.0675,0.0688 0.20375,-0.0537 0.2175,0.11 0.0813,0 0.0813,0.095 0.0413,0.135 -0.0413,0.0825 -0.0963,0.1375 -0.1775,0.1775 0.19125,0.0412 0.13625,0.2725 0.34,0.28625 0.0137,0.0538 0.0275,0.135 -0.0538,0.14875 0.0275,0.0412 0.0813,0.0412 0.13625,0.0412 0.0263,0.04 0.04,0.0275 0.0675,0.0275 -0.0813,0.19 -0.32625,0.17625 -0.50375,0.20375 -0.25875,0.095 -0.54375,0.16375 -0.76125,0.35375 -0.245,0 -0.45,0.205 -0.735,0.13625 -0.095,0.095 -0.23125,0.15 -0.25875,0.285 -0.0537,0.0412 -0.15,0.055 -0.19,0.1225 -0.21875,0.0137 -0.40875,-0.0412 -0.59875,-0.0675 -0.89875,0.19 -1.8375,0.3125 -2.76375,0.42125 -0.095,-0.0537 -0.19,0.0125 -0.27125,-0.0675 0,0.04 -0.0412,0.0538 -0.0412,0.0937 -0.1775,-0.04 -0.25875,0.38125 -0.435,0.1775 l 0.0275,-0.1225 -0.0963,-0.055 0.0138,0.16375 c -0.04,-0.0538 -0.1225,-0.0138 -0.17625,-0.0538 -0.0962,-0.0825 -0.16375,-0.19 -0.3,-0.16375 -0.32625,0.245 -0.65375,0.5025 -0.91125,0.82875 l 0.04,0.0675 c -0.27125,0.3275 -0.23,0.775 -0.35375,1.15625 l -0.245,0.88375 c -0.135,0.16375 -0.19,0.3675 -0.29875,0.545 -0.28625,0.40875 -0.5575,0.81625 -0.74875,1.2525 l -0.0675,0.04 -0.53125,0.98 c 0.0825,0.2175 0.25875,0.39375 0.3275,0.6125 0.0125,0.0138 0.0538,0 0.0538,0.04 -0.0137,0.0275 -0.0275,0.0813 0.0275,0.0813 h 0.0813 c 0.49,0.74875 0.93875,1.525 1.55125,2.21875 l 0.50375,0.66625 c 0.29875,-0.0675 0.23125,0.28625 0.35375,0.4225 0.10875,-0.0138 0.0275,0.13625 0.10875,0.1775 l 0.4225,0.5575 c -0.0962,0 -0.11,0.15 -0.205,0.055 -0.0412,-0.0137 -0.095,-0.0412 -0.13625,0 l -0.04,0.0675 c -0.0688,0.585 0.0812,1.08875 0.10875,1.64625 0.13625,0.72125 -0.19125,1.62 0.25875,2.21875 0.19,0.0538 0.4075,0.20375 0.625,0.095 0.3275,0.1225 0.77625,0 1.1025,0.16375 0.2175,0.0263 0.43625,0.0813 0.545,0.29875 0.0813,0.23125 0,0.49 0,0.735 -0.0412,0.13625 0.0412,0.38125 -0.1225,0.47625 -0.10875,0.0275 -0.15,-0.0825 -0.245,-0.0825 l -0.38125,0.0138 c -0.0538,0.12375 -0.0825,0.245 -0.16375,0.32625 -0.1225,0.015 -0.19,-0.0675 -0.285,-0.0812 -0.9525,-0.0675 -2,-0.0263 -2.89875,-0.095 l -0.40875,0.0137 c -0.0538,-0.0275 -0.0275,-0.10875 -0.04,-0.16375 -0.0963,-0.10875 -0.3,0.015 -0.35375,-0.135 0.0138,-0.095 0.04,-0.21875 -0.0825,-0.2325 l -0.1625,-0.0263 V 36.1248 c -0.19125,0.0137 -0.15,-0.29875 -0.38125,-0.2175 -0.1225,0.0137 -0.28625,0.0537 -0.3675,-0.0538 -0.0412,-0.0562 0.0413,-0.0562 0.0538,-0.11 -0.19,-0.19 -0.14875,-0.47625 -0.20375,-0.735 -0.20375,-0.4475 -0.0675,-1.03375 -0.16375,-1.5375 l -0.12125,-1.12875 c -0.205,-0.0825 -0.2325,-0.3675 -0.45,-0.395 -0.0275,0.10875 -0.0275,0.23125 0.0412,0.3125 -0.095,0.0825 -0.0687,0.2325 -0.095,0.35375 l -0.8175,0.92625 -1.2924995,1.15625 c -0.0138,0.0538 0.0137,0.095 0.0412,0.13625 0.5449995,0.0263 1.0337495,0.23125 1.5649995,0.29875 0.0675,0.15 0.29875,0.0412 0.3125,0.245 0.16375,0.40875 0.0413,0.885 -0.135,1.2525 -0.1775,0.0137 -0.3275,-0.10875 -0.49125,-0.0137 -0.0675,0.0825 -0.095,0.2725 -0.24375,0.23125 -0.0687,-0.0137 -0.16375,-0.0137 -0.1775,0.0813 -0.0413,0.055 0.0275,0.245 -0.13625,0.1775 -0.0137,-0.0813 -0.0137,-0.1775 -0.095,-0.2175 l -0.7212495,-0.1225 -0.0812,0.0412 c -0.31375,0.0125 -0.5725,-0.0137 -0.89875,0 -0.0538,0.04 0,0.1625 -0.095,0.1625 l 0.13625,0.0688 c -0.1225,0.0675 -0.3,-0.0288 -0.4225,-0.11 0,-0.04 -0.0538,-0.10875 -0.10875,-0.10875 -0.16375,0.0275 -0.35375,0.0825 -0.44875,0.25875 -0.1225,0.055 -0.10875,-0.16375 -0.2175,-0.23125 -0.16375,-0.0537 -0.38125,-0.0275 -0.5175,0.10875 -0.095,0.0688 -0.1225,0.2175 -0.2725,0.1775 -0.14875,0.0275 -0.20375,-0.16375 -0.3525,-0.10875 0,-0.1775 -0.0825,-0.32625 -0.2325,-0.43625 -0.19,-0.0675 -0.44875,-0.0538 -0.54375,-0.285 -0.10875,0.1225 -0.10875,-0.10875 -0.20375,-0.0825 0,-0.095 -0.0275,-0.19 -0.0825,-0.27125 l -0.095,0.0263 c -0.0675,0.055 -0.1225,0.31375 -0.3125,0.28625 -0.38125,-0.4075 -0.0137,-1.14375 -0.40875,-1.5375 -0.2175,0.0812 -0.38125,0.32625 -0.53125,0.50375 l -0.49,0.59875 c 0.55875,0.2575 1.13,0.48875 1.715,0.7075 0.1225,0.095 0.1225,0.285 0.0688,0.4075 -0.0413,0.0675 -0.095,0.15 -0.1775,0.15 -0.7075,-0.245 -1.36125,-0.57125 -2.0275,-0.91125 -0.1775,0.1225 -0.2725,-0.11 -0.38125,-0.1775 -0.38125,-0.19 -0.74875,-0.4075 -1.1425,-0.5575 -0.0825,-0.1225 0.135,-0.095 0.16375,-0.20375 0.23,-0.16375 0.435,0.0675 0.6525,0.10875 -0.3,-0.68125 -0.5575,-1.4025 -1.02,-2.02875 -0.0962,-0.095 -0.19125,-0.21625 -0.31375,-0.24375 -0.1625,0.1225 -0.1625,0.34 -0.21750002,0.53 -0.055,1.42875 0.29875002,2.7075 0.83000002,3.905 0.0688,0.095 0.0813,0.245 0.2175,0.2725 0.19,-0.0675 0.38125,-0.1225 0.59875,-0.10875 0.0413,0.0275 0.055,0.095 0.0275,0.13625 -0.29875,0.16375 -0.53125,0.45 -0.72125,0.735 -0.095,0.0275 -0.19125,-0.0275 -0.23125,-0.10875 -0.68125,-1.33375 -0.93875002,-2.84375 -1.06125002,-4.4225 -0.0138,-0.545 -0.0813,-1.18375 0.42125002,-1.45625 0.34125,-0.0275 0.585,0.29875 0.74875,0.5575 l 1.0475,1.9325 c 0.095,0.10875 0.19125,0.245 0.3275,0.28625 0.17625,0.0138 0.29875,-0.1225 0.42125,-0.245 l 0.96625,-1.075 c -0.13625,-0.87125 -0.34,-1.72875 -0.585,-2.55875 -0.44875,0.2175 -1.14375,0.3675 -1.5925,0.0275 -0.095,-0.13625 -0.0538,-0.31375 -0.095,-0.4625 -0.0275,-0.11 -0.0825,-0.2725 0.055,-0.35375 0.4075,-0.245 1.03375,-0.49 1.4825,-0.15 0.095,0.0675 0.20375,0.135 0.245,0.23125 0.19,-0.10875 0.4225,-0.25875 0.5575,-0.4625 0.0275,-0.1225 -0.0538,-0.2175 -0.14875,-0.3 -0.31375,-0.2725 -0.695,-0.4075 -0.94,-0.7475 -0.0263,-0.15 0.055,-0.2725 0.16375,-0.3675 l 0.19,-0.12375 c -0.17625,-0.12125 -0.53,0.0412 -0.57125,-0.23125 -0.1225,-0.46125 0.50375,-0.63875 0.4625,-1.0875 -0.0538,-0.34 -0.095,-0.68 -0.285,-0.9525 -0.98,0 -1.66125,-0.695 -2.45,-1.14375 -0.35375002,-0.2725 -0.76125002,-0.585 -0.98000002,-0.97875 -0.095,-0.205 -0.10875,-0.50375 0.0412,-0.695 0.25875,-0.20375 0.65375,-0.1225 0.92500002,-0.0137 0.96625,0.45 2.06875,1.15625 2.545,2.205 0.245,-0.0137 0.54375,0.04 0.77625,-0.0412 0.1625,-0.3675 -0.0275,-0.735 -0.1225,-1.06125 -0.25875,-0.66625 -0.99375,-1.13 -1.26625,-1.79625 0.0687,-0.19125 -0.0275,-0.3675 0.0137,-0.5575 0.1225,-0.1225 0.28625,-0.0137 0.4225,0 0.4625,0.15 0.88375,0.40875 1.40125,0.40875 0.04,0 0.0675,-0.0425 0.0675,-0.0962 -0.19,-0.38125 -0.5575,-0.68 -0.8025,-1.0325 l -0.50375,-0.8975 c -0.0275,-0.20375 0.1225,-0.325 0.245,-0.475 0.245,-0.13625 0.3675,0.24375 0.57125,0.3125 0.13625,0.0412 0.2725,0.17625 0.4225,0.0675 0.13625,-0.0825 0.0675,-0.23 0.0537,-0.35375 -0.2175,-0.67875 -0.63875,-1.29125 -0.72125,-2.02625 0,-0.15 0.0275,-0.34 0.205,-0.32625 0.4625,-0.23125 1.02,-0.28625 1.42875,-0.65375 0.0812,-0.245 0.0412,-0.5575 0,-0.8025 -0.55875,-0.055 -1.075,-0.5725 -1.26625,-1.06125 -0.1625,-0.38125 0,-0.80375 0.1775,-1.13 0.0675,-0.04 0.15,0 0.2175,0.0137 0.0137,0.42125 -0.2175,0.925 0.1775,1.1975 0.19,0.15 0.4075,0.20375 0.6525,0.20375 0.0825,-0.0125 0.16375,-0.10875 0.205,-0.17625 0.0537,-0.34125 -0.10875,-0.62625 -0.355,-0.8575 -0.12125,-0.13625 -0.29875,-0.20375 -0.42125,-0.32625 0.0675,-0.205 -0.1225,-0.47625 0.0675,-0.62625 0.1775,0.0412 0.3,0.25875 0.49,0.245 0.11,-0.0812 0.0412,-0.23125 0.0275,-0.32625 -0.34,-0.89875 -0.83,-1.72875 -1.51,-2.4775 -0.83,-0.4075 -1.5925,-1.02 -2.26,-1.74125 -0.2575,-0.19125 -0.095,-0.53125 -0.12125,-0.80375 0.17625,-0.0675 0.36625,0.0275 0.5575,0.055 0.735,0.38125 1.25125,1.18375 1.8375,1.7825 0.53,0.3675 1.3875,0.4625 1.9725,0.16375 0.1225,-0.0688 0.245,-0.1775 0.28625,-0.3 0,-0.8575 -0.45,-1.55125 -0.89875,-2.2175 -0.44875,-0.055 -0.87125,-0.23125 -1.1425,-0.64 -0.31375,-0.5175 -0.0825,-1.1975 -0.0825,-1.7825 0.0138,-0.5175 0.3675,-0.91125 0.77625,-1.23875 0.2725,-0.1225 0.44875,0.205 0.6675,0.3275 l 0.34,0.19 c 0.44875,0.62625 0.475,1.47 0.42125,2.2725 0.7625,-0.20375 1.21125,-1.0475 1.30625,-1.7825 0.1225,-1.1975 0,-2.395 -0.35375,-3.4425 -0.15,-0.395 -0.34,-0.74875 -0.68,-1.04875 -0.10875,0.095 0.0263,0.43625 -0.2325,0.34 -0.095,-0.2575 -0.21625,-0.5025 -0.285,-0.76125 0.0687,-0.19 -0.0138,-0.44875 0.16375,-0.57125 0.245,0.0137 0.32625,0.285 0.47625,0.44875 m -4.88625,21.335 c 0.0687,0.0813 0.055,0.2175 0.0137,0.3125 -0.0675,0.14875 -0.20375,0.3125 -0.3675,0.3525 -0.10875,0.0137 -0.20375,-0.04 -0.24375,-0.13625 -0.0413,-0.14875 -0.055,-0.3525 0.04,-0.475 0.055,-0.095 0.15,-0.1625 0.245,-0.17625 0.1225,-0.0138 0.23125,0.0275 0.3125,0.1225 m 18.9574995,-8.285 c 0.0812,0.0412 0.19,0.10875 0.24375,0.19 0,0.0962 -0.1225,0.19125 -0.04,0.28625 0.0675,0.0412 0.23125,0.0137 0.2175,0.15 -0.095,0.0125 -0.15,0.0812 -0.19125,0.15 0.0137,0.14875 0.2325,0.14875 0.13625,0.32625 l -0.285,0.245 c 0,0.20375 0.0263,0.49 -0.1775,0.59875 0,0.0275 -0.04,0.0675 0,0.0813 -0.0275,0.0812 -0.0275,0.205 -0.13625,0.23125 -0.0675,-0.0537 -0.1625,-0.0137 -0.2175,0.055 -0.0275,0.0537 -0.095,0.0537 -0.13625,0.04 -0.4625,0.25875 -0.99375,0.355 -1.565,0.3675 -0.095,0.095 -0.0675,0.25875 -0.15,0.3675 -0.135,0.2175 -0.23125,0.5175 -0.51625,0.585 l 0.2575,-0.3675 c -0.12125,0.055 -0.24375,0.2725 -0.36625,0.12375 -0.15,0.04 -0.1225,0.29875 -0.31375,0.2575 l -0.2175,0.11 c -0.3675,-0.0137 -0.68,-0.1775 -1.0475,-0.1775 -0.0275,-0.055 0,-0.13625 -0.0812,-0.15 -0.055,0.0675 -0.095,-0.0813 -0.13625,0 -0.055,0 -0.055,-0.0675 -0.0687,-0.095 -0.0137,0.0275 -0.04,0.0675 -0.0812,0.0412 0.0275,-0.0688 -0.0675,-0.055 -0.0413,-0.13625 0,-0.0137 -0.0263,-0.0412 -0.04,-0.055 -0.0687,0 -0.055,0.0675 -0.055,0.10875 -0.0412,0 -0.0812,0 -0.095,-0.0275 -0.0275,0.0275 -0.055,0.055 -0.10875,0.055 -0.0275,0.0137 -0.055,0 -0.055,-0.0275 0.055,-0.0538 0,-0.1225 0.0825,-0.1625 -0.0138,-0.0412 -0.055,-0.0275 -0.0825,-0.0275 -0.0538,0.0275 -0.0137,0.10875 -0.0675,0.0813 0,-0.04 -0.055,-0.0813 -0.0138,-0.1225 -0.1225,0 -0.2175,0.13625 -0.34,0.1225 0.51625,-0.5575 1.02,-1.225 1.66,-1.6325 0.3125,-0.1775 0.545,-0.5175 0.84375,-0.7075 0.23125,-0.6675 1.03375,-0.5175 1.57875,-0.72125 0.35375,-0.055 0.69375,-0.15 1.06125,-0.15 0.0813,-0.15 0.28625,-0.095 0.42125,-0.10875 0.0275,0.0412 0.055,0.17625 0.12375,0.095" />
</svg>
