<?xml version="1.0" encoding="UTF-8" standalone="no"?>
<svg
	 xmlns:dc="http://purl.org/dc/elements/1.1/"
	 xmlns:cc="http://creativecommons.org/ns#"
	 xmlns:rdf="http://www.w3.org/1999/02/22-rdf-syntax-ns#"
	 xmlns:svg="http://www.w3.org/2000/svg"
	 xmlns="http://www.w3.org/2000/svg"
	 height="79.973"
	 width="51.348"
	 id="svg8"
	 xml:space="preserve"
	 enable-background="new 0 0 100 100"
	 viewBox="0 0 51.348 79.973"
	 y="0px"
	 x="0px"
	 version="1.1"><metadata
		 id="metadata14"><rdf:RDF><cc:Work
				 rdf:about=""><dc:format>image/svg+xml</dc:format><dc:type
					 rdf:resource="http://purl.org/dc/dcmitype/StillImage" /><dc:title></dc:title></cc:Work></rdf:RDF></metadata><defs
		 id="defs12" /><path
		 id="path2"
		 d="M 39.281,3.723 C 35.559,1.412 31.195,0 26.446,0 12.967,0 1.928,11.039 1.928,24.518 c 0,1.284 0.127,2.567 0.257,3.723 C 15.02,22.465 27.472,14.249 39.281,3.723 Z M 5.136,40.308 7.189,39.794 c 3.596,4.878 9.115,8.343 15.404,9.5 -0.513,3.852 -1.668,6.034 -3.594,9.5 H 34.66 C 32.734,55.07 31.578,52.89 31.065,49.167 42.62,47.111 51.348,37.099 51.348,25.032 c 0,-4.493 -1.283,-8.858 -3.466,-12.452 L 49.294,11.039 44.286,3.465 C 33.761,13.991 11.554,29.396 0,32.605 Z m 29.01,39.665 c 0,-3.596 -0.643,-6.805 -1.668,-9.241 3.98,0 13.863,-5.136 13.863,-8.985 H 8.473 c 0,3.852 8.985,9.112 12.709,9.112 -1.027,2.438 -1.541,5.521 -1.541,9.114 z" /></svg>
