<?xml version="1.0" encoding="UTF-8" standalone="no"?>
<svg
	 xmlns:dc="http://purl.org/dc/elements/1.1/"
	 xmlns:cc="http://creativecommons.org/ns#"
	 xmlns:rdf="http://www.w3.org/1999/02/22-rdf-syntax-ns#"
	 xmlns:svg="http://www.w3.org/2000/svg"
	 xmlns="http://www.w3.org/2000/svg"
	 version="1.1"
	 x="0px"
	 y="0px"
	 viewBox="0 0 36.599998 89.915337"
	 enable-background="new 0 0 100 100"
	 xml:space="preserve"
	 id="svg12"
	 width="36.599998"
	 height="89.915337"><metadata
		 id="metadata18"><rdf:RDF><cc:Work
				 rdf:about=""><dc:format>image/svg+xml</dc:format><dc:type
					 rdf:resource="http://purl.org/dc/dcmitype/StillImage" /><dc:title></dc:title></cc:Work></rdf:RDF></metadata><defs
		 id="defs16" /><path
		 id="path4"
		 d="m 31.6,76.5 c 0.4,-0.5 0.6,-1.1 0.6,-1.8 -0.1,-3 -1.3,-3.6 -1.7,-3.7 -2.9,2.7 -10.7,2.8 -12.6,2.8 -1.8,0 -9.1,-0.2 -12.2,-2.6 -0.5,0.4 -1.1,1.3 -1.2,3.5 0,0.7 0.2,1.3 0.6,1.8 C 1.9,77.4 0,78.5 0,79.8 V 86 c 0,0 3.6,4.2 19.4,3.9 15.8,-0.2 17.2,-5.1 17.2,-5.1 v -5.4 h -0.1 c -0.2,-1 -2,-2.1 -4.9,-2.9 z M 6.7,69.7 c 0,1.7 5.2,3.2 11.7,3.2 6.5,0 11.7,-1.4 11.7,-3.2 0,-1.4 -3.3,-2.6 -7.8,-3 0.1,-0.5 0.1,-1 0.1,-1 0,0 -1,-4.7 0.3,-7.4 1.3,-2.7 0.8,-6.7 0.5,-7.3 -0.3,-0.6 -0.7,-3.6 0,-4.8 0.7,-1.2 1,-4 1.4,-8.3 0.4,-4.3 -0.8,-5.1 -0.8,-5.1 v -3.5 h 0.8 c 2.5,-0.2 2.8,-5.3 3.1,-7.6 0.3,-2.3 2,-4.4 0,-7.1 -2,-2.7 -6.7,-3.7 -6.7,-3.7 l 0.1,-2.5 c 0,0 1.3,-1.1 1.2,-4.8 C 22,0 18.9,0 18.9,0 h -1.1 c 0,0 -3.1,0 -3.2,3.7 -0.1,3.7 1.2,4.8 1.2,4.8 l 0.1,2.5 c 0,0 -4.8,1 -6.7,3.7 -2,2.7 -0.3,4.8 0,7.1 0.3,2.3 0.7,7.4 3.1,7.6 h 0.8 v 3.5 c 0,0 -1.2,0.8 -0.8,5.1 0.4,4.3 0.7,7.1 1.4,8.3 0.7,1.2 0.3,4.3 0,4.8 -0.3,0.6 -0.8,4.6 0.5,7.3 1.3,2.7 0.3,7.4 0.3,7.4 0,0 0,0.4 0.1,1 -4.6,0.3 -7.9,1.5 -7.9,2.9 z" /></svg>
