<?xml version="1.0" encoding="UTF-8" standalone="no"?>
<svg
	 xmlns:dc="http://purl.org/dc/elements/1.1/"
	 xmlns:cc="http://creativecommons.org/ns#"
	 xmlns:rdf="http://www.w3.org/1999/02/22-rdf-syntax-ns#"
	 xmlns:svg="http://www.w3.org/2000/svg"
	 xmlns="http://www.w3.org/2000/svg"
	 width="1054.8038"
	 height="2960.0002"
	 viewBox="0 0 1054.8038 2960.0005"
	 id="svg2"
	 version="1.1">
	<title
		 id="title4196">Palme d'or</title>
	<defs
		 id="defs4" />
	<metadata
		 id="metadata7">
		<rdf:RDF>
			<cc:Work
				 rdf:about="">
				<dc:format>image/svg+xml</dc:format>
				<dc:type
					 rdf:resource="http://purl.org/dc/dcmitype/StillImage" />
				<dc:title>Palme d'or</dc:title>
			</cc:Work>
		</rdf:RDF>
	</metadata>
	<path
		 style="fill:#000000;fill-opacity:1"
		 d="m 479.25525,23.561855 c 12.5854,61.6638 32.2355,118.883095 49.7334,177.552695 11.3222,37.84966 21.7087,76.21416 28.633,116.77766 l -0.2807,16.6089 -10.9011,-7.205 c -5.895,-5.661 -11.7433,-11.4157 -17.4512,-17.2639 -57.4999,-58.6696 -107.1398,-125.10576 -162.8619,-186.39516 -22.4572,-19.1824 -39.6744,-61.429995 -80.5186,-47.768495 -6.5032,12.5386 7.1115,46.317995 14.3165,62.505995 61.5703,119.25736 130.7667,229.01716 226.9587,329.88766 2.8539,2.9475 5.661,5.8482 8.4682,8.7957 43.277,57.2192 143.3054,67.6993 137.5507,153.4111 -5.0061,54.3654 -4.4915,62.1318 -11.8836,83.045 -67.4186,-87.3492 -290.494,-255.4979 -343.7832,-270.5631 0,0 -48.2363,-15.065 -46.5988,5.7547 29.1477,80.1444 96.9873,155.7972 151.8672,218.2097 -27.0423,-5.8482 -78.7407,-49.7335 -109.947,-28.3055 29.2412,138.7204 214.8411,334.2855 215.4493,335.2681 24.6562,37.19489 103.9116,50.90309 92.1215,108.73049 -4.9125,36.1655 -5.3803,79.7701 -17.6383,101.0577 -22.1765,-37.1949 -46.9731,-72.8457 -73.5007,-107.3737 -61.5235,-80.05089 -132.2171,-154.44059 -200.2438,-230.28049 -9.9654,-4.3043 -19.8841,-29.3348 -34.9023,-15.065 -19.3694,24.1415 9.2168,52.5406 13.8486,78.7874 52.6342,120.05269 123.5149,201.22629 221.2975,280.52849 18.3401,14.7844 41.8267,36.9142 62.9271,50.1547 -6.6436,56.5641 -3.6493,86.7879 -21.6151,114.4852 -13.9422,-16.8899 -27.6505,-34.107 -41.312,-51.2775 -73.22,-92.4958 -145.4107,-186.6758 -254.0009,-257.2291 -36.8205,7.1115 -7.2986,44.2128 -0.2807,62.0382 62.2721,126.0881 139.0946,229.7189 260.6913,309.2083 7.4857,4.8657 15.1586,9.591 23.2058,14.1761 -1.4971,55.5818 -12.3983,103.5373 -23.2994,151.493 -0.2807,0.9824 -0.5146,2.0117 -0.7485,2.9942 l -5.0997,-0.3743 c -61.8043,-120.9885 -167.9616,-228.6429 -293.3947,-311.9686 0,0 -121.3627,-69.2433 -21.0537,82.5303 72.8458,113.3155 168.9909,216.4786 305.6994,288.7629 0,0 2.9007,76.2143 -5.4272,76.2143 -90.1097,-73.3603 -206.2324,-158.5576 -324.8348,-201.6006 -18.5272,-4.1172 -57.266,-15.3458 -61.3831,11.79 42.8091,102.087 162.7215,169.4119 275.1013,224.0579 33.0777,16.609 74.7172,25.779 106.1573,40.657 -3.3218,68.1671 2.62,115.3274 -16.8897,180.8277 -72.0504,-82.1561 -131.4685,-171.798 -217.9757,-246.5619 -23.5801,-12.679 -81.1736,-96.7534 -155.4697,-94.6481 -16.0476,26.247 2.9007,52.5406 14.644,68.5415 l 183.588,230.374 0.7018,12.0707 c -65.7342,-36.727 -161.8793,-116.8712 -229.719004,-149.7617 -22.78472,-11.1352 -43.51089,-24.7499 -71.16138,-23.7673 l -6.6436,20.305 c 71.62928,166.6048 234.912184,310.1441 445.402184,366.4744 19.463,13.755 56.8449,20.4922 45.7099,48.7977 -57.1724,3.6025 -110.4149,21.3345 -162.1133,40.9378 -149.3408,71.4422 -258.305204,173.9033 -336.9523938,304.904 -12.25792,21.3344 10.8075498,33.6858 28.6329898,26.6212 105.034504,-18.3869 171.002604,-83.279 250.772704,-128.0064 82.2497,-53.1488 156.5925,-125.3395 230.8418,-186.0208 7.0179,20.6793 119.8656,494.387 188.0795,578.6485 24.3755,44.1659 80.8929,114.953 204.7821,113.877 36.5398,-3.6961 72.4714,-29.2413 83.2322,-61.5703 4.4447,-30.6448 7.1114,-52.2599 -6.6904,-72.4247 -111.257,-87.3026 -213.0164,-188.5006 -280.7157,-301.3015 -40.5634,-77.3839 -80.2379,-134.2288 -91.4197,-223.1689 34.2005,-36.5866 79.1618,-60.3538 120.5674,-110.4149 89.7354,-98.5312 150.6039,-184.9916 172.874,-320.9516 l -4.5382,-13.5212 -12.4918,4.9126 c -104.5198,71.91 -170.5348,181.7634 -225.1808,294.2368 -14.5972,19.1822 -39.2066,65.8279 -68.7286,68.4012 -23.2058,-69.1965 -29.943,-161.5052 -9.9654,-244.6438 172.687,-99.5137 362.3104,-209.18 470.99405,-368.5329 2.8072,-11.8836 -13.755,-20.2115 -24.5626,-14.2698 -269.15945,110.5553 -293.39455,181.202 -417.00305,294.424 -9.1232,6.1289 -30.598,14.644 -37.7563,-1.5439 l 1.6376,-105.8299 c 4.6785,-34.1069 -4.9593,-80.7057 9.9654,-88.9869 178.0205,-5.0995 314.0272,-119.7251 449.37895,-188.7812 0,0 12.7725,-22.3168 -10.4801,-21.1004 l -1.4971,-0.6551 c -313.37225,28.2587 -385.51615,145.6447 -438.80535,163.3766 -1.2164,-18.1062 -0.093,-37.9435 8.0472,-52.7277 151.5864,-74.4834 266.1184,-175.6345 351.9238,-308.8809 1.8715,-2.854 3.8833,-19.4629 -20.2583,-8.7022 -130.2053,38.7388 -196.922,158.464 -295.0789,235.9416 l -25.3112,13.6146 -2.1054,-15.7201 c 6.5968,-33.2648 14.1294,-78.1325 30.0834,-102.6015 84.8697,-44.2128 150.4168,-104.0051 211.0982,-167.6809 47.7216,-52.7276 103.3969,-97.7825 118.9766,-177.459 l -1.1696,-8.4214 -6.8776,-2.4797 -10.1057,2.4797 c -128.9421,49.2656 -183.1202,182.1376 -274.0253,275.8499 -5.7547,6.4096 -29.1944,18.1061 -32.8437,0.5614 l 21.9426,-151.0718 c 303.36,-227.23939 291.336,-315.05659 291.336,-315.05659 0,0 15.8605,-68.2607 -34.1069,-37.0077 -77.0097,74.1089 -112.2863,138.6267 -182.5588,227.23939 -15.1586,15.9071 -41.967,55.722 -69.1964,51.5581 4.9125,-32.4226 4.585,-37.8499 12.0708,-104.0052 2.9475,-20.81969 6.5968,-48.98489 13.7083,-64.98569 52.9617,-118.6023 218.9582,-128.942 253.8605,-416.9564 0.9357,-10.3396 -12.8661,-12.5386 -21.8958,-5.3803 -64.0968,82.3432 -207.9168,296.81 -224.479,309.9569 2.4797,-27.4166 18.9951,-142.8375 27.4634,-160.9904 78.2261,-144.8493 136.5214,-233.4619 109.058,-440.7237 -26.0598,-17.82536 -36.5398,11.0415 -46.1777,35.5574 l -45.3824,116.7777 c -4.8189,15.065 -17.4979,79.8636 -24.9837,103.2566 -39.113,-124.0764 -84.3082,-287.73346 -150.5571,-396.931955 -13.6148,-17.2639 -23.9545,-37.7562 -38.8792,-54.6459 -10.1057,-11.5094 -22.4572,-21.1941003 -39.3469,-27.22950028 -18.2933,-5.80140002 -10.3397,22.78480028 -10.3397,22.78480028 z m 21.6619,2085.389845 c -8.0472,13.0532 -24.0012,2.6668 -30.5045,-1.3568 -4.8657,-3.8365 -84.8697,-48.4235 -64.2839,-87.7237 19.7437,-6.9711 99.233,61.196 94.7884,89.0805 z m 28.3055,-1366.57059 c 35.8848,21.849 87.0686,6.2224 120.5205,34.8087 l -24.9369,193.4599 c -39.9552,-112.2863 -116.7309,-203.6125 -147.9371,-257.6034 z m 149.1535,-208.7121 c -20.8197,1.5438 -39.3937,-22.4573 -53.6167,-37.4756 -53.2424,-65.0793 -1.4035,-74.8575 -1.4035,-74.8575 23.2526,29.6155 50.7627,71.5825 55.0202,112.3331 z"
		 id="path27" />
</svg>
