<?xml version="1.0" encoding="UTF-8" standalone="no"?>
<svg
	 xmlns:dc="http://purl.org/dc/elements/1.1/"
	 xmlns:cc="http://creativecommons.org/ns#"
	 xmlns:rdf="http://www.w3.org/1999/02/22-rdf-syntax-ns#"
	 xmlns:svg="http://www.w3.org/2000/svg"
	 xmlns="http://www.w3.org/2000/svg"
	 id="svg4"
	 version="1.1"
	 height="16"
	 width="20"
	 viewBox="0 0 20 16">
	<metadata
		 id="metadata10">
		<rdf:RDF>
			<cc:Work
				 rdf:about="">
				<dc:format>image/svg+xml</dc:format>
				<dc:type
					 rdf:resource="http://purl.org/dc/dcmitype/StillImage" />
				<dc:title></dc:title>
			</cc:Work>
		</rdf:RDF>
	</metadata>
	<defs
		 id="defs8" />
	<path
		 id="path2"
		 d="m 18,2 a 2,2 0 0 1 2,2 v 10 a 2,2 0 0 1 -2,2 H 2 A 2,2 0 0 1 0,14 V 2 C 0,0.9 0.9,0 2,0 h 7.41 l 2,2 z M 2,2 V 14 H 18 V 4 h -7.41 l -2,-2 z m 9,6 h 2 a 1,1 0 0 1 0,2 h -2 v 2 A 1,1 0 0 1 9,12 V 10 H 7 A 1,1 0 0 1 7,8 H 9 V 6 a 1,1 0 0 1 2,0 z"
		 class="heroicon-ui" />
</svg>
