<?xml version="1.0" encoding="UTF-8" standalone="no"?>
<svg
   xmlns:dc="http://purl.org/dc/elements/1.1/"
   xmlns:cc="http://creativecommons.org/ns#"
   xmlns:rdf="http://www.w3.org/1999/02/22-rdf-syntax-ns#"
   xmlns:svg="http://www.w3.org/2000/svg"
   xmlns="http://www.w3.org/2000/svg"
   id="svg4"
   version="1.1"
   height="20"
   width="20.006983"
   viewBox="0 0 20.006983 20">
  <metadata
     id="metadata10">
    <rdf:RDF>
      <cc:Work
         rdf:about="">
        <dc:format>image/svg+xml</dc:format>
        <dc:type
           rdf:resource="http://purl.org/dc/dcmitype/StillImage" />
        <dc:title></dc:title>
      </cc:Work>
    </rdf:RDF>
  </metadata>
  <defs
     id="defs8" />
  <path
     id="path2"
     d="m 2,14 v 5 A 1,1 0 0 1 0,19 V 1 A 1,1 0 0 1 1,0 h 8.5 a 1,1 0 0 1 0.7,0.3 L 10.91,1 H 19 a 1,1 0 0 1 0.9,1.45 L 17.11,8 19.88,13.55 A 1,1 0 0 1 19,15 H 10.5 A 1,1 0 0 1 9.8,14.7 L 9.09,14 Z M 9,2 H 2 v 10 h 7.5 a 1,1 0 0 1 0.7,0.3 l 0.71,0.7 h 6.47 L 15.11,8.45 a 1,1 0 0 1 0,-0.9 L 17.38,3 H 11 V 7 A 1,1 0 0 1 9,7 Z"
     class="heroicon-ui" />
</svg>
