<?xml version="1.0" encoding="UTF-8" standalone="no"?>
<svg
	 xmlns:dc="http://purl.org/dc/elements/1.1/"
	 xmlns:cc="http://creativecommons.org/ns#"
	 xmlns:rdf="http://www.w3.org/1999/02/22-rdf-syntax-ns#"
	 xmlns:svg="http://www.w3.org/2000/svg"
	 xmlns="http://www.w3.org/2000/svg"
	 id="svg4"
	 version="1.1"
	 height="18"
	 width="20"
	 viewBox="0 0 20 18">
	<metadata
		 id="metadata10">
		<rdf:RDF>
			<cc:Work
				 rdf:about="">
				<dc:format>image/svg+xml</dc:format>
				<dc:type
					 rdf:resource="http://purl.org/dc/dcmitype/StillImage" />
				<dc:title></dc:title>
			</cc:Work>
		</rdf:RDF>
	</metadata>
	<defs
		 id="defs8" />
	<path
		 id="path2"
		 d="m 18,6 v 10 a 2,2 0 0 1 -2,2 H 4 A 2,2 0 0 1 2,16 V 6 A 2,2 0 0 1 0,4 V 2 C 0,0.9 0.9,0 2,0 h 16 a 2,2 0 0 1 2,2 V 4 A 2,2 0 0 1 18,6 Z M 18,4 V 2 H 2 V 4 Z M 4,6 V 16 H 16 V 6 Z m 4,2 h 4 a 1,1 0 0 1 0,2 H 8 A 1,1 0 0 1 8,8 Z"
		 class="heroicon-ui" />
</svg>
