<?xml version="1.0" encoding="UTF-8" standalone="no"?>
<svg
   xmlns:dc="http://purl.org/dc/elements/1.1/"
   xmlns:cc="http://creativecommons.org/ns#"
   xmlns:rdf="http://www.w3.org/1999/02/22-rdf-syntax-ns#"
   xmlns:svg="http://www.w3.org/2000/svg"
   xmlns="http://www.w3.org/2000/svg"
   id="svg4"
   version="1.1"
   width="41.594"
   height="90.005">
  <metadata
     id="metadata10">
    <rdf:RDF>
      <cc:Work
         rdf:about="">
        <dc:format>image/svg+xml</dc:format>
        <dc:type
           rdf:resource="http://purl.org/dc/dcmitype/StillImage" />
        <dc:title></dc:title>
      </cc:Work>
    </rdf:RDF>
  </metadata>
  <defs
     id="defs8" />
  <path
     id="path2"
     d="M18.367 15.81l-7.906 1.195c-.804 5.474-1.617 10.948-2.426 16.421l4.822 6.543 2.727 25.373H11.27c-1.203 0-2.172 1.094-2.172 2.446v15.8H2.127C.948 83.589 0 84.607 0 85.87v1.853c0 1.264.948 2.282 2.127 2.282h37.34c1.178 0 2.127-1.018 2.127-2.282V85.87c0-1.264-.949-2.281-2.127-2.281h-6.97V67.788c0-1.352-.97-2.446-2.173-2.446h-5.226l3.13-24.675 5.33-7.24-2.425-16.405c-1.79-.285-4.59-.826-6.694-1.213zM25.963 6.69a5.166 6.685 0 1 1-10.332 0 5.166 6.685 0 1 1 10.332 0z" />
</svg>
