<?xml version="1.0" encoding="UTF-8" standalone="no"?>
<svg
   xmlns:dc="http://purl.org/dc/elements/1.1/"
   xmlns:cc="http://creativecommons.org/ns#"
   xmlns:rdf="http://www.w3.org/1999/02/22-rdf-syntax-ns#"
   xmlns:svg="http://www.w3.org/2000/svg"
   xmlns="http://www.w3.org/2000/svg"
   height="78.834"
   width="77.667999"
   id="svg8"
   xml:space="preserve"
   enable-background="new 0 0 100 100"
   viewBox="0 0 77.667999 78.834"
   y="0px"
   x="0px"
   version="1.1"><metadata
     id="metadata14"><rdf:RDF><cc:Work
         rdf:about=""><dc:format>image/svg+xml</dc:format><dc:type
           rdf:resource="http://purl.org/dc/dcmitype/StillImage" /><dc:title></dc:title></cc:Work></rdf:RDF></metadata><defs
     id="defs12" /><path
     id="path2"
     d="M 15.334,30 H 3.5 C 1.57,30 0,31.57 0,33.5 v 11.834 c 0,1.93 1.57,3.5 3.5,3.5 h 11.834 c 1.93,0 3.5,-1.57 3.5,-3.5 V 33.5 c 0,-1.93 -1.57,-3.5 -3.5,-3.5 z m 0.5,15.334 c 0,0.276 -0.225,0.5 -0.5,0.5 H 3.5 C 3.225,45.834 3,45.61 3,45.334 V 33.5 C 3,33.224 3.225,33 3.5,33 h 11.834 c 0.275,0 0.5,0.224 0.5,0.5 z M 76.168,37.917 H 26.334 c -0.828,0 -1.5,0.671 -1.5,1.5 0,0.829 0.672,1.5 1.5,1.5 h 49.834 c 0.828,0 1.5,-0.671 1.5,-1.5 0,-0.829 -0.672,-1.5 -1.5,-1.5 z M 15.334,60 H 3.5 C 1.57,60 0,61.57 0,63.5 v 11.834 c 0,1.93 1.57,3.5 3.5,3.5 h 11.834 c 1.93,0 3.5,-1.57 3.5,-3.5 V 63.5 c 0,-1.93 -1.57,-3.5 -3.5,-3.5 z m 0.5,15.334 c 0,0.276 -0.225,0.5 -0.5,0.5 H 3.5 C 3.225,75.834 3,75.61 3,75.334 V 63.5 C 3,63.224 3.225,63 3.5,63 h 11.834 c 0.275,0 0.5,0.224 0.5,0.5 z M 76.168,67.917 H 26.334 c -0.828,0 -1.5,0.671 -1.5,1.5 0,0.829 0.672,1.5 1.5,1.5 h 49.834 c 0.828,0 1.5,-0.671 1.5,-1.5 0,-0.829 -0.672,-1.5 -1.5,-1.5 z M 15.334,0 H 3.5 C 1.57,0 0,1.57 0,3.5 v 11.834 c 0,1.93 1.57,3.5 3.5,3.5 h 11.834 c 1.93,0 3.5,-1.57 3.5,-3.5 V 3.5 c 0,-1.93 -1.57,-3.5 -3.5,-3.5 z m 0.5,15.334 c 0,0.276 -0.225,0.5 -0.5,0.5 H 3.5 C 3.225,15.834 3,15.61 3,15.334 V 3.5 C 3,3.224 3.225,3 3.5,3 h 11.834 c 0.275,0 0.5,0.224 0.5,0.5 z m 10.5,-4.417 h 49.834 c 0.828,0 1.5,-0.671 1.5,-1.5 0,-0.829 -0.672,-1.5 -1.5,-1.5 H 26.334 c -0.828,0 -1.5,0.671 -1.5,1.5 0,0.829 0.672,1.5 1.5,1.5 z" /></svg>