<?xml version="1.0" encoding="UTF-8" standalone="no"?>
<svg
	 xmlns:dc="http://purl.org/dc/elements/1.1/"
	 xmlns:cc="http://creativecommons.org/ns#"
	 xmlns:rdf="http://www.w3.org/1999/02/22-rdf-syntax-ns#"
	 xmlns:svg="http://www.w3.org/2000/svg"
	 xmlns="http://www.w3.org/2000/svg"
	 id="svg4"
	 version="1.1"
	 height="20"
	 width="20"
	 viewBox="0 0 20 20">
	<metadata
		 id="metadata10">
		<rdf:RDF>
			<cc:Work
				 rdf:about="">
				<dc:format>image/svg+xml</dc:format>
				<dc:type
					 rdf:resource="http://purl.org/dc/dcmitype/StillImage" />
				<dc:title></dc:title>
			</cc:Work>
		</rdf:RDF>
	</metadata>
	<defs
		 id="defs8" />
	<path
		 id="path2"
		 d="m 10,0 a 10,10 0 1 1 0,20 10,10 0 0 1 0,-20 z m 0,2 a 8,8 0 1 0 0,16 8,8 0 0 0 0,-16 z m 0,9 A 1,1 0 0 1 9,10 V 6 a 1,1 0 0 1 2,0 v 4 a 1,1 0 0 1 -1,1 z m 0,4 a 1,1 0 1 1 0,-2 1,1 0 0 1 0,2 z"
		 class="heroicon-ui" />
</svg>
