<?xml version="1.0" encoding="UTF-8" standalone="no"?>
<svg
   xmlns:dc="http://purl.org/dc/elements/1.1/"
   xmlns:cc="http://creativecommons.org/ns#"
   xmlns:rdf="http://www.w3.org/1999/02/22-rdf-syntax-ns#"
   xmlns:svg="http://www.w3.org/2000/svg"
   xmlns="http://www.w3.org/2000/svg"
   id="svg4"
   version="1.1"
   height="18"
   width="18"
   viewBox="0 0 18 18">
  <metadata
     id="metadata10">
    <rdf:RDF>
      <cc:Work
         rdf:about="">
        <dc:format>image/svg+xml</dc:format>
        <dc:type
           rdf:resource="http://purl.org/dc/dcmitype/StillImage" />
        <dc:title></dc:title>
      </cc:Work>
    </rdf:RDF>
  </metadata>
  <defs
     id="defs8" />
  <path
     id="path2"
     d="m 2,0 h 14 a 2,2 0 0 1 2,2 v 14 a 2,2 0 0 1 -2,2 H 2 A 2,2 0 0 1 0,16 V 2 C 0,0.9 0.9,0 2,0 Z m 14,12 v -2 h -2 v 2 z m 0,2 h -2 v 2 h 2 z M 2,12 H 4 V 10 H 2 Z m 0,2 v 2 H 4 V 14 Z M 16,6 h -2 v 2 h 2 z M 16,4 V 2 H 14 V 4 Z M 2,6 V 8 H 4 V 6 Z M 2,4 H 4 V 2 H 2 Z m 4,4 h 6 V 2 H 6 Z m 0,2 v 6 h 6 v -6 z"
     class="heroicon-ui" />
</svg>
