<?xml version="1.0" encoding="UTF-8" standalone="no"?>
<svg
	 xmlns:dc="http://purl.org/dc/elements/1.1/"
	 xmlns:cc="http://creativecommons.org/ns#"
	 xmlns:rdf="http://www.w3.org/1999/02/22-rdf-syntax-ns#"
	 xmlns:svg="http://www.w3.org/2000/svg"
	 xmlns="http://www.w3.org/2000/svg"
	 xmlns:sodipodi="http://sodipodi.sourceforge.net/DTD/sodipodi-0.dtd"
	 xmlns:inkscape="http://www.inkscape.org/namespaces/inkscape"
	 viewBox="0 0 269.64001 88.760002"
	 width="269.64001"
	 height="88.760002"
	 version="1.1"
	 id="svg14"
	 sodipodi:docname="icon__google--colored.svg"
	 inkscape:version="0.92.2 5c3e80d, 2017-08-06">
	<metadata
		 id="metadata20">
		<rdf:RDF>
			<cc:Work
				 rdf:about="">
				<dc:format>image/svg+xml</dc:format>
				<dc:type
					 rdf:resource="http://purl.org/dc/dcmitype/StillImage" />
				<dc:title></dc:title>
			</cc:Work>
		</rdf:RDF>
	</metadata>
	<defs
		 id="defs18" />
	<sodipodi:namedview
		 pagecolor="#ffffff"
		 bordercolor="#666666"
		 borderopacity="1"
		 objecttolerance="10"
		 gridtolerance="10"
		 guidetolerance="10"
		 inkscape:pageopacity="0"
		 inkscape:pageshadow="2"
		 inkscape:window-width="1920"
		 inkscape:window-height="1028"
		 id="namedview16"
		 showgrid="false"
		 fit-margin-top="0"
		 fit-margin-left="0"
		 fit-margin-right="0"
		 fit-margin-bottom="0"
		 inkscape:zoom="1.125"
		 inkscape:cx="135.64"
		 inkscape:cy="43.23"
		 inkscape:window-x="0"
		 inkscape:window-y="26"
		 inkscape:window-maximized="1"
		 inkscape:current-layer="svg14" />
	<path
		 d="m 115.39,46.71 c 0,12.77 -9.99,22.18 -22.25,22.18 -12.26,0 -22.25,-9.41 -22.25,-22.18 0,-12.86 9.99,-22.18 22.25,-22.18 12.26,0 22.25,9.32 22.25,22.18 z m -9.74,0 c 0,-7.98 -5.79,-13.44 -12.51,-13.44 -6.72,0 -12.51,5.46 -12.51,13.44 0,7.9 5.79,13.44 12.51,13.44 6.72,0 12.51,-5.55 12.51,-13.44 z"
		 id="path2"
		 inkscape:connector-curvature="0"
		 style="fill:#ea4335" />
	<path
		 d="m 163.39,46.71 c 0,12.77 -9.99,22.18 -22.25,22.18 -12.26,0 -22.25,-9.41 -22.25,-22.18 0,-12.85 9.99,-22.18 22.25,-22.18 12.26,0 22.25,9.32 22.25,22.18 z m -9.74,0 c 0,-7.98 -5.79,-13.44 -12.51,-13.44 -6.72,0 -12.51,5.46 -12.51,13.44 0,7.9 5.79,13.44 12.51,13.44 6.72,0 12.51,-5.55 12.51,-13.44 z"
		 id="path4"
		 inkscape:connector-curvature="0"
		 style="fill:#fbbc05" />
	<path
		 d="m 209.39,25.87 v 39.82 c 0,16.38 -9.66,23.07 -21.08,23.07 -10.75,0 -17.22,-7.19 -19.66,-13.07 l 8.48,-3.53 c 1.51,3.61 5.21,7.87 11.17,7.87 7.31,0 11.84,-4.51 11.84,-13 v -3.19 h -0.34 c -2.18,2.69 -6.38,5.04 -11.68,5.04 -11.09,0 -21.25,-9.66 -21.25,-22.09 0,-12.52 10.16,-22.26 21.25,-22.26 5.29,0 9.49,2.35 11.68,4.96 h 0.34 v -3.61 h 9.25 z m -8.56,20.92 c 0,-7.81 -5.21,-13.52 -11.84,-13.52 -6.72,0 -12.35,5.71 -12.35,13.52 0,7.73 5.63,13.36 12.35,13.36 6.63,0 11.84,-5.63 11.84,-13.36 z"
		 id="path6"
		 inkscape:connector-curvature="0"
		 style="fill:#4285f4" />
	<path
		 d="m 224.64,2.53 v 65 h -9.5 v -65 z"
		 id="path8"
		 inkscape:connector-curvature="0"
		 style="fill:#34a853" />
	<path
		 d="m 261.66,54.01 7.56,5.04 c -2.44,3.61 -8.32,9.83 -18.48,9.83 -12.6,0 -22.01,-9.74 -22.01,-22.18 0,-13.19 9.49,-22.18 20.92,-22.18 11.51,0 17.14,9.16 18.98,14.11 l 1.01,2.52 -29.65,12.28 c 2.27,4.45 5.8,6.72 10.75,6.72 4.96,0 8.4,-2.44 10.92,-6.14 z m -23.27,-7.98 19.82,-8.23 c -1.09,-2.77 -4.37,-4.7 -8.23,-4.7 -4.95,0 -11.84,4.37 -11.59,12.93 z"
		 id="path10"
		 inkscape:connector-curvature="0"
		 style="fill:#ea4335" />
	<path
		 d="m 34.93,40.94 v -9.41 h 31.71 c 0.31,1.64 0.47,3.58 0.47,5.68 0,7.06 -1.93,15.79 -8.15,22.01 -6.05,6.3 -13.78,9.66 -24.02,9.66 C 15.96,68.88 0,53.42 0,34.44 0,15.46 15.96,0 34.94,0 45.44,0 52.92,4.12 58.54,9.49 L 51.9,16.13 C 47.87,12.35 42.41,9.41 34.93,9.41 c -13.86,0 -24.7,11.17 -24.7,25.03 0,13.86 10.84,25.03 24.7,25.03 8.99,0 14.11,-3.61 17.39,-6.89 2.66,-2.66 4.41,-6.46 5.1,-11.65 z"
		 id="path12"
		 inkscape:connector-curvature="0"
		 style="fill:#4285f4" />
</svg>
