<?xml version="1.0" encoding="UTF-8" standalone="no"?>
<svg
   xmlns:dc="http://purl.org/dc/elements/1.1/"
   xmlns:cc="http://creativecommons.org/ns#"
   xmlns:rdf="http://www.w3.org/1999/02/22-rdf-syntax-ns#"
   xmlns:svg="http://www.w3.org/2000/svg"
   xmlns="http://www.w3.org/2000/svg"
   version="1.1"
   x="0px"
   y="0px"
   viewBox="0 0 95 95"
   xml:space="preserve"
   id="svg16"
   width="95"
   height="95"><metadata
     id="metadata22"><rdf:RDF><cc:Work
         rdf:about=""><dc:format>image/svg+xml</dc:format><dc:type
           rdf:resource="http://purl.org/dc/dcmitype/StillImage" /><dc:title></dc:title></cc:Work></rdf:RDF></metadata><defs
     id="defs20" /><g
     id="g10"
     style="fill:#000000;fill-opacity:1;stroke:none;stroke-opacity:1"
     transform="translate(-2.5,-2.5)"><g
       id="g4"
       style="fill:#000000;fill-opacity:1;stroke:none;stroke-opacity:1" /><g
       id="g8"
       style="fill:#000000;fill-opacity:1;stroke:none;stroke-opacity:1"><path
         id="path823"
         d="m 50,32.5 c -9.7,0 -17.5,7.8 -17.5,17.5 0,9.7 7.9,17.5 17.5,17.5 4.9,0 17.5,0 17.5,0 0,0 0,-12.8 0,-17.5 0,-9.6 -7.8,-17.5 -17.5,-17.5 z"
         style="fill:#000000;fill-opacity:1;stroke:none;stroke-opacity:1" /><path
         id="path821"
         d="M 50,5 C 25.2,5 5,25.2 5,50 c 0,24.9 20.1,45 45,45 12.6,0 45,0 45,0 0,0 0,-32.8 0,-45 C 95,25.2 74.9,5 50,5 Z"
         style="fill:none;fill-opacity:1;stroke:#000000;stroke-width:5;stroke-miterlimit:4;stroke-dasharray:none;stroke-opacity:1" /></g></g></svg>